{"title":"True Justice, Brotherhood 2011 DVDrip English Klam","uid":7030845,"size":1299873969,"categoryP":"video","categoryS":"movies","magnet":"?xt=urn:btih:e24cb68fd5715dca0e2ac8fe251449ddf6d08616&amp;dn=True+Justice%2C+Brotherhood+2011+DVDrip+English+Klam&amp;tr=udp%3A%2F%2Ftracker.openbittorrent.com%3A80&amp;tr=udp%3A%2F%2Fopen.demonii.com%3A1337&amp;tr=udp%3A%2F%2Ftracker.coppersurfer.tk%3A6969&amp;tr=udp%3A%2F%2Fexodus.desync.com%3A6969","seeders":0,"leechers":1,"uploader":"Klambake","files":-1,"time":1329211558,"description":"In Seattle woedt er een bloederige bendeoorlog tussen de Yakuza (Japanse maffia) en de gevaarlijke Mexicaanse\nMS-13 bende.\n\nElijah Kane\\\\\\'s (Steven Seagal) city is caught in the crossfire of a gang war between the Japanese mafia, the Yakuza, when they attack the dangerous Mexican gang, MS-13, in Seattle and look to flip a profit doing so. While the gangs war on, a single man has taken the financial crisis personally when he holds his neighborhood bank hostage citing they took not only his house; but his life....\n\n------------------------ Dutch Friends ------------------------\n---------------------------------------------------------------\n- Bezoek ook eens mijn vrienden op: &lt;a href=&quot; http://www.Film-Test.nl&quot; rel=&quot;nofollow&quot; target=&quot;_NEW&quot;&gt; http://www.Film-Test.nl&lt;/a&gt; --\n----- voor mijn Nederlandse Sync. ondertitels ---- en meer ----\n------- http://www.Film-Test.nl ---- voor Films en meer -------\n---------------------------------------------------------------\n\nGeneral:\n\nComplete name                    : True Justice\\\\\\\\Brotherhood.avi\nFormat                           : AVI\nFormat/Info                      : Audio Video Interleave\nFile size                        : 1.21 GiB\nDuration                         : 1h 25mn\nOverall bit rate                 : 2 018 Kbps\n\nVideo:\nID                               : 0\nFormat                           : MPEG-4 Visual\nFormat profile                   : Simple@L3\nFormat settings, BVOP            : No\nFormat settings, QPel            : No\nFormat settings, GMC             : No warppoints\nFormat settings, Matrix          : Default (H.263)\nCodec ID                         : XVID\nCodec ID/Hint                    : XviD\nDuration                         : 1h 25mn\nBit rate                         : 1 623 Kbps\nWidth                            : 704 pixels\nHeight                           : 396 pixels\nDisplay aspect ratio             : 16:9\nFrame rate                       : 25.000 fps\nColor space                      : YUV\nChroma subsampling               : 4:2:0\nBit depth                        : 8 bits\nScan type                        : Progressive\nCompression mode                 : Lossy\nBits/(Pixel*Frame)               : 0.233\nStream size                      : 997 MiB (80%)\nWriting library                  : XviD 1.1.2 (UTC 2006-11-01)\n\nAudio:\n\nFormat                           : AC-3\nFormat/Info                      : Audio Coding 3\nMode extension                   : CM (complete main)\nCodec ID                         : 2000\nDuration                         : 1h 25mn\nBit rate mode                    : Constant\nBit rate                         : 384 Kbps\nChannel(s)                       : 6 channels\nChannel positions                : Front: L C R, Side: L R, LFE\nSampling rate                    : 48.0 KHz\nBit depth                        : 16 bits\nCompression mode                 : Lossy\nStream size                      : 236 MiB (19%)\nAlignment                        : Aligned on interleaves\nInterleave, duration             : 32 ms (0.80 video frame)\nInterleave, preload duration     : 64 ms\n\n","torrent":{"xt":"urn:btih:e24cb68fd5715dca0e2ac8fe251449ddf6d08616","amp;dn":"True+Justice%2C+Brotherhood+2011+DVDrip+English+Klam","amp;tr":["udp%3A%2F%2Ftracker.openbittorrent.com%3A80","udp%3A%2F%2Fopen.demonii.com%3A1337","udp%3A%2F%2Ftracker.coppersurfer.tk%3A6969","udp%3A%2F%2Fexodus.desync.com%3A6969"],"infoHash":"e24cb68fd5715dca0e2ac8fe251449ddf6d08616","infoHashBuffer":{"type":"Buffer","data":[226,76,182,143,213,113,93,202,14,42,200,254,37,20,73,221,246,208,134,22]},"announce":[],"urlList":[]}}